<?xml version="1.0" standalone="no"?>
<!DOCTYPE svg PUBLIC "-//W3C//DTD SVG 1.1//EN" "http://www.w3.org/Graphics/SVG/1.1/DTD/svg11.dtd">
<svg width="365mm" height="255mm" viewBox="0 -255 365 255" xmlns="http://www.w3.org/2000/svg" version="1.1">
<title>OpenSCAD Model</title>
<path d="
M 20,-198 L 30,-198 L 30,-195 L 40,-195 L 40,-198 L 50,-198
 L 50,-195 L 60,-195 L 60,-198 L 70,-198 L 70,-195 L 80,-195
 L 80,-198 L 90,-198 L 90,-195 L 100,-195 L 100,-198 L 110,-198
 L 110,-195 L 120,-195 L 120,-198 L 130,-198 L 130,-195 L 140,-195
 L 140,-198 L 150,-198 L 150,-195 L 160,-195 L 160,-198 L 170,-198
 L 170,-195 L 180,-195 L 180,-198 L 190,-198 L 190,-195 L 200,-195
 L 200,-198 L 210,-198 L 210,-195 L 220,-195 L 220,-198 L 230,-198
 L 230,-195 L 240,-195 L 240,-198 L 250,-198 L 250,-195 L 260,-195
 L 260,-198 L 270,-198 L 270,-195 L 280,-195 L 280,-198 L 290,-198
 L 290,-195 L 300,-195 L 300,-200 L 297,-200 L 297,-210 L 300,-210
 L 300,-220 L 297,-220 L 297,-230 L 300,-230 L 300,-240 L 297,-240
 L 297,-250 L 300,-250 L 300,-255 L 290,-255 L 290,-252 L 280,-252
 L 280,-255 L 270,-255 L 270,-252 L 260,-252 L 260,-255 L 250,-255
 L 250,-252 L 240,-252 L 240,-255 L 230,-255 L 230,-252 L 220,-252
 L 220,-255 L 210,-255 L 210,-252 L 200,-252 L 200,-255 L 190,-255
 L 190,-252 L 180,-252 L 180,-255 L 170,-255 L 170,-252 L 160,-252
 L 160,-255 L 150,-255 L 150,-252 L 140,-252 L 140,-255 L 130,-255
 L 130,-252 L 120,-252 L 120,-255 L 110,-255 L 110,-252 L 100,-252
 L 100,-255 L 90,-255 L 90,-252 L 80,-252 L 80,-255 L 70,-255
 L 70,-252 L 60,-252 L 60,-255 L 50,-255 L 50,-252 L 40,-252
 L 40,-255 L 30,-255 L 30,-252 L 20,-252 L 20,-255 L 10,-255
 L 10,-252 L 0,-252 L 0,-250 L 3,-250 L 3,-240 L 0,-240
 L 0,-230 L 3,-230 L 3,-220 L 0,-220 L 0,-210 L 3,-210
 L 3,-200 L 0,-200 L 0,-198 L 10,-198 L 10,-195 L 20,-195
 z
M 20,-133 L 30,-133 L 30,-130 L 40,-130 L 40,-133 L 50,-133
 L 50,-130 L 60,-130 L 60,-133 L 70,-133 L 70,-130 L 80,-130
 L 80,-133 L 90,-133 L 90,-130 L 100,-130 L 100,-133 L 110,-133
 L 110,-130 L 120,-130 L 120,-133 L 130,-133 L 130,-130 L 140,-130
 L 140,-133 L 150,-133 L 150,-130 L 160,-130 L 160,-133 L 170,-133
 L 170,-130 L 180,-130 L 180,-133 L 190,-133 L 190,-130 L 200,-130
 L 200,-133 L 210,-133 L 210,-130 L 220,-130 L 220,-133 L 230,-133
 L 230,-130 L 240,-130 L 240,-133 L 250,-133 L 250,-130 L 260,-130
 L 260,-133 L 270,-133 L 270,-130 L 280,-130 L 280,-133 L 290,-133
 L 290,-130 L 300,-130 L 300,-135 L 297,-135 L 297,-145 L 300,-145
 L 300,-155 L 297,-155 L 297,-165 L 300,-165 L 300,-175 L 297,-175
 L 297,-185 L 300,-185 L 300,-190 L 290,-190 L 290,-187 L 280,-187
 L 280,-190 L 270,-190 L 270,-187 L 260,-187 L 260,-190 L 250,-190
 L 250,-187 L 240,-187 L 240,-190 L 230,-190 L 230,-187 L 220,-187
 L 220,-190 L 210,-190 L 210,-187 L 200,-187 L 200,-190 L 190,-190
 L 190,-187 L 180,-187 L 180,-190 L 170,-190 L 170,-187 L 160,-187
 L 160,-190 L 150,-190 L 150,-187 L 140,-187 L 140,-190 L 130,-190
 L 130,-187 L 120,-187 L 120,-190 L 110,-190 L 110,-187 L 100,-187
 L 100,-190 L 90,-190 L 90,-187 L 80,-187 L 80,-190 L 70,-190
 L 70,-187 L 60,-187 L 60,-190 L 50,-190 L 50,-187 L 40,-187
 L 40,-190 L 30,-190 L 30,-187 L 20,-187 L 20,-190 L 10,-190
 L 10,-187 L 0,-187 L 0,-185 L 3,-185 L 3,-175 L 0,-175
 L 0,-165 L 3,-165 L 3,-155 L 0,-155 L 0,-145 L 3,-145
 L 3,-135 L 0,-135 L 0,-133 L 10,-133 L 10,-130 L 20,-130
 z
M 20,-68 L 30,-68 L 30,-65 L 40,-65 L 40,-68 L 50,-68
 L 50,-65 L 60,-65 L 60,-68 L 70,-68 L 70,-65 L 80,-65
 L 80,-68 L 90,-68 L 90,-65 L 100,-65 L 100,-68 L 110,-68
 L 110,-65 L 120,-65 L 120,-68 L 130,-68 L 130,-65 L 140,-65
 L 140,-68 L 150,-68 L 150,-65 L 160,-65 L 160,-68 L 170,-68
 L 170,-65 L 180,-65 L 180,-68 L 190,-68 L 190,-65 L 200,-65
 L 200,-68 L 210,-68 L 210,-65 L 220,-65 L 220,-68 L 230,-68
 L 230,-65 L 240,-65 L 240,-68 L 250,-68 L 250,-65 L 260,-65
 L 260,-68 L 270,-68 L 270,-65 L 280,-65 L 280,-68 L 290,-68
 L 290,-65 L 300,-65 L 300,-70 L 297,-70 L 297,-80 L 300,-80
 L 300,-90 L 297,-90 L 297,-100 L 300,-100 L 300,-110 L 297,-110
 L 297,-120 L 300,-120 L 300,-125 L 290,-125 L 290,-122 L 280,-122
 L 280,-125 L 270,-125 L 270,-122 L 260,-122 L 260,-125 L 250,-125
 L 250,-122 L 240,-122 L 240,-125 L 230,-125 L 230,-122 L 220,-122
 L 220,-125 L 210,-125 L 210,-122 L 200,-122 L 200,-125 L 190,-125
 L 190,-122 L 180,-122 L 180,-125 L 170,-125 L 170,-122 L 160,-122
 L 160,-125 L 150,-125 L 150,-122 L 140,-122 L 140,-125 L 130,-125
 L 130,-122 L 120,-122 L 120,-125 L 110,-125 L 110,-122 L 100,-122
 L 100,-125 L 90,-125 L 90,-122 L 80,-122 L 80,-125 L 70,-125
 L 70,-122 L 60,-122 L 60,-125 L 50,-125 L 50,-122 L 40,-122
 L 40,-125 L 30,-125 L 30,-122 L 20,-122 L 20,-125 L 10,-125
 L 10,-122 L 0,-122 L 0,-120 L 3,-120 L 3,-110 L 0,-110
 L 0,-100 L 3,-100 L 3,-90 L 0,-90 L 0,-80 L 3,-80
 L 3,-70 L 0,-70 L 0,-68 L 10,-68 L 10,-65 L 20,-65
 z
M 320,-68 L 330,-68 L 330,-65 L 340,-65 L 340,-68 L 350,-68
 L 350,-65 L 360,-65 L 360,-68 L 362,-68 L 362,-70 L 365,-70
 L 365,-80 L 362,-80 L 362,-90 L 365,-90 L 365,-100 L 362,-100
 L 362,-110 L 365,-110 L 365,-120 L 362,-120 L 362,-122 L 360,-122
 L 360,-125 L 350,-125 L 350,-122 L 340,-122 L 340,-125 L 330,-125
 L 330,-122 L 320,-122 L 320,-125 L 310,-125 L 310,-122 L 308,-122
 L 308,-120 L 305,-120 L 305,-110 L 308,-110 L 308,-100 L 305,-100
 L 305,-90 L 308,-90 L 308,-80 L 305,-80 L 305,-70 L 308,-70
 L 308,-68 L 310,-68 L 310,-65 L 320,-65 z
M 20,-3 L 30,-3 L 30,-0 L 40,-0 L 40,-3 L 50,-3
 L 50,-0 L 60,-0 L 60,-3 L 70,-3 L 70,-0 L 80,-0
 L 80,-3 L 90,-3 L 90,-0 L 100,-0 L 100,-3 L 110,-3
 L 110,-0 L 120,-0 L 120,-3 L 130,-3 L 130,-0 L 140,-0
 L 140,-3 L 150,-3 L 150,-0 L 160,-0 L 160,-3 L 170,-3
 L 170,-0 L 180,-0 L 180,-3 L 190,-3 L 190,-0 L 200,-0
 L 200,-3 L 210,-3 L 210,-0 L 220,-0 L 220,-3 L 230,-3
 L 230,-0 L 240,-0 L 240,-3 L 250,-3 L 250,-0 L 260,-0
 L 260,-3 L 270,-3 L 270,-0 L 280,-0 L 280,-3 L 290,-3
 L 290,-0 L 300,-0 L 300,-5 L 297,-5 L 297,-15 L 300,-15
 L 300,-25 L 297,-25 L 297,-35 L 300,-35 L 300,-45 L 297,-45
 L 297,-55 L 300,-55 L 300,-60 L 290,-60 L 290,-57 L 280,-57
 L 280,-60 L 270,-60 L 270,-57 L 260,-57 L 260,-60 L 250,-60
 L 250,-57 L 240,-57 L 240,-60 L 230,-60 L 230,-57 L 220,-57
 L 220,-60 L 210,-60 L 210,-57 L 200,-57 L 200,-60 L 190,-60
 L 190,-57 L 180,-57 L 180,-60 L 170,-60 L 170,-57 L 160,-57
 L 160,-60 L 150,-60 L 150,-57 L 140,-57 L 140,-60 L 130,-60
 L 130,-57 L 120,-57 L 120,-60 L 110,-60 L 110,-57 L 100,-57
 L 100,-60 L 90,-60 L 90,-57 L 80,-57 L 80,-60 L 70,-60
 L 70,-57 L 60,-57 L 60,-60 L 50,-60 L 50,-57 L 40,-57
 L 40,-60 L 30,-60 L 30,-57 L 20,-57 L 20,-60 L 10,-60
 L 10,-57 L 0,-57 L 0,-55 L 3,-55 L 3,-45 L 0,-45
 L 0,-35 L 3,-35 L 3,-25 L 0,-25 L 0,-15 L 3,-15
 L 3,-5 L 0,-5 L 0,-3 L 10,-3 L 10,-0 L 20,-0
 z
M 49,-9 L 49,-51 L 291,-51 L 291,-9 z
M 320,-3 L 330,-3 L 330,-0 L 340,-0 L 340,-3 L 350,-3
 L 350,-0 L 360,-0 L 360,-3 L 362,-3 L 362,-5 L 365,-5
 L 365,-15 L 362,-15 L 362,-25 L 365,-25 L 365,-35 L 362,-35
 L 362,-45 L 365,-45 L 365,-55 L 362,-55 L 362,-57 L 360,-57
 L 360,-60 L 350,-60 L 350,-57 L 340,-57 L 340,-60 L 330,-60
 L 330,-57 L 320,-57 L 320,-60 L 310,-60 L 310,-57 L 308,-57
 L 308,-55 L 305,-55 L 305,-45 L 308,-45 L 308,-35 L 305,-35
 L 305,-25 L 308,-25 L 308,-15 L 305,-15 L 305,-5 L 308,-5
 L 308,-3 L 310,-3 L 310,-0 L 320,-0 z
" stroke="black" fill="lightgray" stroke-width="0.5"/>
</svg>
